<?xml version="1.0" encoding="UTF-8"?>
<svg width="16px" height="16px" viewBox="0 0 16 16" version="1.1" xmlns="http://www.w3.org/2000/svg" xmlns:xlink="http://www.w3.org/1999/xlink">
    <!-- Generator: Sketch 54.1 (76490) - https://sketchapp.com -->
    <title>Shape</title>
    <desc>Created with Sketch.</desc>
    <g id="Main" stroke="none" stroke-width="1" fill="none" fill-rule="evenodd">
        <g id="[A]-Initial-State-03D-(Assembling,-Fully-In-Action)" transform="translate(-678.000000, -688.000000)" fill="#000000" fill-rule="nonzero">
            <g id="Tools" transform="translate(418.000000, 672.000000)">
                <g id="[Button]-Image" transform="translate(244.000000, 0.000000)">
                    <g id="[Icon]-Image" transform="translate(16.000000, 16.000000)">
                        <path d="M5.14285714,3.04533333 C6.08990476,3.04533333 6.85714286,3.81257143 6.85714286,4.75961905 C6.85714286,5.70666667 6.08990476,6.47390476 5.14285714,6.47390476 C4.19580952,6.47390476 3.42857143,5.70666667 3.42857143,4.75961905 C3.42857143,3.81257143 4.19580952,3.04533333 5.14285714,3.04533333 Z M10.6026667,6.63619048 C10.4670476,6.37638095 10.1980952,6.21409524 9.9047619,6.21561905 C9.61142857,6.22247619 9.34780952,6.39542857 9.22514286,6.66209524 L8.03809524,9.27847619 C7.99542857,9.37371429 7.88266667,9.41638095 7.78742857,9.37371429 C7.76,9.36152381 7.73561905,9.34247619 7.71657143,9.31885714 L7.09180952,8.53866667 C6.94171429,8.3512381 6.71238095,8.24457143 6.47238095,8.25219048 C6.23314286,8.26057143 6.01066667,8.38095238 5.8727619,8.5767619 L3.49714286,11.9695238 C3.3752381,12.1409524 3.41485714,12.3786667 3.58628571,12.5005714 C3.65180952,12.5470476 3.72952381,12.5721905 3.80952381,12.5714286 L12.952381,12.5714286 C13.0841905,12.5714286 13.2068571,12.5028571 13.2761905,12.3908571 C13.3455238,12.2788571 13.351619,12.1386667 13.2929524,12.0205714 L10.6026667,6.63619048 Z M14.4761905,0 L1.9047619,0 C1.06285714,0 0.380952381,0.681904762 0.380952381,1.52380952 L0.380952381,14.0952381 C0.380952381,14.9371429 1.06285714,15.6190476 1.9047619,15.6190476 L14.4761905,15.6190476 C15.3180952,15.6190476 16,14.9371429 16,14.0952381 L16,1.52380952 C16,0.681904762 15.3180952,0 14.4761905,0 Z M14.3657143,13.984 C14.2940952,14.055619 14.1973333,14.0952381 14.096,14.0952381 L2.28571429,14.0952381 C2.07542857,14.0952381 1.9047619,13.9245714 1.9047619,13.7142857 L1.9047619,1.9047619 C1.9047619,1.69447619 2.07542857,1.52380952 2.28571429,1.52380952 L14.0952381,1.52380952 C14.3055238,1.52380952 14.4761905,1.69447619 14.4761905,1.9047619 L14.4761905,13.7142857 C14.4761905,13.8148571 14.4365714,13.9108571 14.3657143,13.9817143 L14.3657143,13.984 Z" id="Shape"></path>
                    </g>
                </g>
            </g>
        </g>
    </g>
</svg>