<?xml version="1.0" encoding="UTF-8"?>
<svg width="16px" height="16px" viewBox="0 0 16 16" version="1.1" xmlns="http://www.w3.org/2000/svg" xmlns:xlink="http://www.w3.org/1999/xlink">
    <!-- Generator: Sketch 54.1 (76490) - https://sketchapp.com -->
    <title>Combined Shape</title>
    <desc>Created with Sketch.</desc>
    <g id="Main" stroke="none" stroke-width="1" fill="none" fill-rule="evenodd">
        <g id="[A]-Initial-State-03D-(Assembling,-Fully-In-Action)" transform="translate(-937.000000, -688.000000)" fill="#000000" fill-rule="nonzero">
            <g id="Tools" transform="translate(418.000000, 672.000000)">
                <g id="[Button]-Pencil" transform="translate(503.000000, 0.000000)">
                    <g id="[Icon]-Pencil" transform="translate(16.000000, 16.000000)">
                        <path d="M16,0.229490631 L16,7.77133333 L13.0613333,10.71 C12.9313333,10.84 12.72,10.84 12.59,10.71 L9.29133333,7.41133333 C9.16133333,7.28133333 9.16133333,7.07 9.29133333,6.94 L16,0.229490631 Z M8.62,8.2 L11.7973333,11.384 C11.8406667,11.4273333 11.8713333,11.482 11.886,11.542 C11.9286667,11.7213333 11.8186667,11.9013333 11.6393333,11.944 L7.458,12.944 C7.34533333,12.97 7.22733333,12.9366667 7.14466667,12.856 C7.06266667,12.774 7.02933333,12.6553333 7.056,12.5426667 L8.06,8.358 C8.08866667,8.24066667 8.178,8.148 8.294,8.11533333 C8.41,8.08266667 8.53466667,8.11466667 8.62,8.2 Z M5.55273286,14.1836974 C5.81823984,13.9359771 6.23280337,13.944634 6.48832889,14.2030089 C6.74185811,14.4613839 6.73986182,14.875583 6.4843363,15.1319602 C5.80360036,15.7232926 4.92256968,16.0316112 4.0222415,15.9929881 C2.90897539,16.0649069 1.83230799,15.5801209 1.14824489,14.6984496 C0.460189206,13.6502996 0.549356964,12.0940566 1.4144173,10.072339 C2.67274737,7.1336567 3.90712193,4.89018951 3.2716353,3.37390136 C2.93093461,2.56015339 2.01130893,1.88225206 0.46285093,1.30024246 C0.442222568,1.29358331 0.422259637,1.28625825 0.402296707,1.27760136 C0.0649231754,1.13243191 -0.0907876851,0.740208058 0.054276279,0.40258922 C0.199340243,0.0649703816 0.591279118,-0.0908536975 0.92865265,0.0543157437 C2.86705323,0.780828865 4.00161314,1.67581845 4.50135184,2.85848325 C5.38903683,4.97875619 3.98031934,7.46062091 2.63814496,10.596414 C1.96938678,12.1579844 1.83962773,13.3226695 2.26284186,13.9652773 C2.70668436,14.4620498 3.35880676,14.7197589 4.0222415,14.6611584 C4.57321839,14.6904586 5.11621011,14.5206503 5.55273286,14.1836974 Z" id="Combined-Shape"></path>
                    </g>
                </g>
            </g>
        </g>
    </g>
</svg>