<?xml version="1.0" encoding="UTF-8"?>
<svg width="20px" height="16px" viewBox="0 0 20 16" version="1.1" xmlns="http://www.w3.org/2000/svg" xmlns:xlink="http://www.w3.org/1999/xlink">
    <!-- Generator: Sketch 54.1 (76490) - https://sketchapp.com -->
    <title>Shape</title>
    <desc>Created with Sketch.</desc>
    <g id="Main" stroke="none" stroke-width="1" fill="none" fill-rule="evenodd">
        <g id="[A]-Initial-State-03D-(Assembling,-Fully-In-Action)" transform="translate(-546.000000, -688.000000)" fill="#000000" fill-rule="nonzero">
            <g id="Tools" transform="translate(418.000000, 672.000000)">
                <g id="[Button]-Shape" transform="translate(112.000000, 0.000000)">
                    <g id="[Icon]-Shape" transform="translate(16.000000, 16.000000)">
                        <path d="M19.2,9.984 C19.2048,6.6768 16.528,3.992 13.2208,3.9872 C12.1592,3.9856 11.1168,4.2664 10.2,4.8 C10.104,4.8552 9.9824,4.8224 9.9264,4.7272 L7.5872,0.6696 C7.2624,0.0664 6.5104,-0.16 5.9064,0.1648 C5.6928,0.28 5.5168,0.4552 5.4016,0.6696 L0.2008,9.684 C-0.0488,10.0728 -0.0664,10.5672 0.1544,10.9736 C0.396,11.368 0.8328,11.5992 1.2944,11.5768 L7.2712,11.5768 C7.3592,11.5768 7.4368,11.6344 7.4624,11.7184 C8.4312,14.8872 11.7864,16.6704 14.9552,15.7008 C17.4704,14.932 19.1912,12.6144 19.2,9.984 Z M10.9368,9.68 C10.992,9.776 10.9592,9.8976 10.8632,9.9536 C10.8328,9.9712 10.7984,9.9808 10.7632,9.98 L9.0032,9.98 C8.8928,9.98 8.8032,9.8896 8.804,9.7792 C8.804,9.776 8.804,9.7728 8.804,9.7696 C8.84,9.0344 9.0616,8.3208 9.4488,7.6952 C9.4856,7.6352 9.5512,7.5992 9.6216,7.6 C9.692,7.6008 9.7568,7.6392 9.792,7.7 L10.9368,9.68 Z M6.32,2.2776 C6.3752,2.1816 6.4976,2.1488 6.5936,2.2048 C6.624,2.2224 6.6496,2.2472 6.6664,2.2776 L8.7072,5.8144 C8.7496,5.8888 8.7408,5.9816 8.684,6.0464 C7.7728,7.0832 7.2496,8.404 7.2024,9.7832 C7.1992,9.8912 7.1104,9.9768 7.0024,9.9768 L2.2256,9.9768 C2.1152,9.9768 2.0256,9.888 2.0256,9.7768 C2.0256,9.7416 2.0344,9.7072 2.052,9.6768 L6.32,2.2776 Z M13.2,14.384 C11.4992,14.3816 9.952,13.4 9.2264,11.8624 C9.1792,11.7624 9.2216,11.6432 9.3216,11.596 C9.348,11.5832 9.3776,11.5768 9.4072,11.5768 L11.6944,11.5768 C12.3632,11.6256 12.9456,11.1232 12.9944,10.4544 C13.0144,10.1816 12.9416,9.9104 12.788,9.684 L10.924,6.4536 C10.8688,6.3584 10.9016,6.236 10.9968,6.1808 C13.0976,4.9592 15.7904,5.6712 17.0128,7.7712 C18.2344,9.872 17.5224,12.5648 15.4224,13.7872 C14.7472,14.18 13.9808,14.3856 13.2,14.384 Z" id="Shape"></path>
                    </g>
                </g>
            </g>
        </g>
    </g>
</svg>