<?xml version="1.0" encoding="UTF-8"?>
<svg width="13px" height="16px" viewBox="0 0 13 16" version="1.1" xmlns="http://www.w3.org/2000/svg" xmlns:xlink="http://www.w3.org/1999/xlink">
    <!-- Generator: Sketch 54.1 (76490) - https://sketchapp.com -->
    <title>Path</title>
    <desc>Created with Sketch.</desc>
    <g id="Main" stroke="none" stroke-width="1" fill="none" fill-rule="evenodd">
        <g id="[A]-Initial-State-03D-(Assembling,-Fully-In-Action)" transform="translate(-103.000000, -234.000000)" fill="#000000" fill-rule="nonzero">
            <g id="Layers" transform="translate(72.000000, 198.000000)">
                <g id="[Layer](Text)-Is-how-everything" transform="translate(30.000000, 36.000000)">
                    <g id="[Icon]-Text">
                        <path d="M12.5373333,8.8817842e-16 L2.46266667,8.8817842e-16 C1.65533333,0.002 1.002,0.656 1,1.46333333 L1,2.72266667 C1,3.18266667 1.37333333,3.556 1.83333333,3.556 C2.29333333,3.556 2.66666667,3.18266667 2.66666667,2.72266667 L2.66666667,1.83333333 C2.66666667,1.74133333 2.74133333,1.66666667 2.83333333,1.66666667 L6.5,1.66666667 C6.592,1.66666667 6.66666667,1.74133333 6.66666667,1.83333333 L6.66666667,13.6853333 C6.66666667,13.7773333 6.592,13.852 6.5,13.852 L5.296,13.852 C4.836,13.852 4.46266667,14.2253333 4.46266667,14.6853333 C4.46266667,15.1453333 4.836,15.5186667 5.296,15.5186667 L9.704,15.5186667 C10.164,15.5186667 10.5373333,15.1453333 10.5373333,14.6853333 C10.5373333,14.2253333 10.164,13.852 9.704,13.852 L8.5,13.852 C8.408,13.852 8.33333333,13.7773333 8.33333333,13.6853333 L8.33333333,1.83333333 C8.33333333,1.74133333 8.408,1.66666667 8.5,1.66666667 L12.1666667,1.66666667 C12.2586667,1.66666667 12.3333333,1.74133333 12.3333333,1.83333333 L12.3333333,2.72266667 C12.3333333,3.18266667 12.7066667,3.556 13.1666667,3.556 C13.6266667,3.556 14,3.18266667 14,2.72266667 L14,1.46333333 C13.998,0.656 13.3446667,0.002 12.5373333,8.8817842e-16 Z" id="Path"></path>
                    </g>
                </g>
            </g>
        </g>
    </g>
</svg>