<?xml version="1.0" encoding="UTF-8"?>
<svg width="18px" height="16px" viewBox="0 0 18 16" version="1.1" xmlns="http://www.w3.org/2000/svg" xmlns:xlink="http://www.w3.org/1999/xlink">
    <!-- Generator: Sketch 54.1 (76490) - https://sketchapp.com -->
    <title>Shape</title>
    <desc>Created with Sketch.</desc>
    <g id="Main" stroke="none" stroke-width="1" fill="none" fill-rule="evenodd">
        <g id="[A]-Initial-State-03D-(Assembling,-Fully-In-Action)" transform="translate(-804.000000, -688.000000)" fill="#000000" fill-rule="nonzero">
            <g id="Tools" transform="translate(418.000000, 672.000000)">
                <g id="[Button]-Vector" transform="translate(370.000000, 0.000000)">
                    <g id="[Icon]-Vector" transform="translate(16.000000, 16.000000)">
                        <path d="M16.3636364,11.8181818 L16.1265455,11.8181818 C16.0349091,11.8181818 15.9578182,11.7498182 15.9461818,11.6589091 C15.5650909,8.59927273 13.3003636,6.11054545 10.2909091,5.44218182 C10.2276364,5.42836364 10.1825455,5.37309091 10.1818182,5.30909091 C10.1825455,5.25309091 10.2145455,5.20290909 10.2654545,5.17890909 C10.6581818,5.00218182 10.9098182,4.61236364 10.9090909,4.18181818 L10.9090909,4 C10.9090909,3.89963636 10.9905455,3.81818182 11.0909091,3.81818182 L11.9105455,3.81818182 C11.9934545,3.81818182 12.0661818,3.87418182 12.0865455,3.95490909 C12.4625455,5.41381818 13.9505455,6.29163636 15.4094545,5.91490909 C16.8683636,5.53890909 17.7461818,4.05090909 17.3694545,2.592 C16.9927273,1.13309091 15.5054545,0.255272727 14.0465455,0.632 C13.2087273,0.848 12.5236364,1.44872727 12.1992727,2.25018182 C12.1709091,2.31854545 12.1047273,2.36363636 12.0305455,2.36363636 L11.0909091,2.36363636 C10.9905455,2.36363636 10.9090909,2.28218182 10.9090909,2.18181818 L10.9090909,2 C10.9090909,1.39781818 10.4203636,0.909090909 9.81818182,0.909090909 L7.63636364,0.909090909 C7.03418182,0.909090909 6.54545455,1.39781818 6.54545455,2 L6.54545455,2.18181818 C6.54545455,2.28218182 6.464,2.36363636 6.36363636,2.36363636 L5.424,2.36363636 C5.34981818,2.36363636 5.28363636,2.31854545 5.25527273,2.25018182 C4.69018182,0.854545455 3.10036364,0.181090909 1.70472727,0.746181818 C0.309090909,1.31127273 -0.364363636,2.90109091 0.200727273,4.29672727 C0.765818182,5.69236364 2.35563636,6.36581818 3.75127273,5.80072727 C4.552,5.47636364 5.152,4.79127273 5.368,3.95490909 C5.38836364,3.87418182 5.46109091,3.81818182 5.544,3.81818182 L6.36363636,3.81818182 C6.464,3.81818182 6.54545455,3.89963636 6.54545455,4 L6.54545455,4 L6.54545455,4.18181818 C6.54545455,4.61090909 6.79709091,5.00072727 7.18909091,5.17672727 C7.24072727,5.20072727 7.27272727,5.25236364 7.27272727,5.30909091 C7.27272727,5.37454545 7.22763636,5.43054545 7.16363636,5.44436364 C4.15345455,6.11272727 1.88945455,8.60145455 1.50836364,11.6610909 C1.49672727,11.752 1.41963636,11.8203636 1.328,11.8203636 L1.09090909,11.8203636 C0.689454545,11.8203636 0.363636364,12.1461818 0.363636364,12.5476364 L0.363636364,14.7294545 C0.363636364,15.1309091 0.689454545,15.4567273 1.09090909,15.4567273 L3.27272727,15.4567273 C3.67418182,15.4567273 4,15.1309091 4,14.7294545 L4,12.5476364 C4,12.1461818 3.67418182,11.8203636 3.27272727,11.8203636 L3.16436364,11.8203636 C3.064,11.8203636 2.98254545,11.7389091 2.98254545,11.6385455 C2.98254545,11.6283636 2.98327273,11.6181818 2.98472727,11.6087273 C3.50109091,8.43709091 6.49090909,6.28509091 9.66254545,6.80145455 C12.1323636,7.20363636 14.0676364,9.13963636 14.4698182,11.6087273 C14.4865455,11.7076364 14.4196364,11.8014545 14.32,11.8181818 C14.3098182,11.8196364 14.2996364,11.8203636 14.2901818,11.8203636 L14.1818182,11.8203636 C13.7803636,11.8203636 13.4545455,12.1461818 13.4545455,12.5476364 L13.4545455,14.7294545 C13.4545455,15.1309091 13.7803636,15.4567273 14.1818182,15.4567273 L16.3636364,15.4567273 C16.7650909,15.4567273 17.0909091,15.1309091 17.0909091,14.7294545 L17.0909091,12.5476364 C17.0923636,12.1461818 16.7672727,11.8196364 16.3658182,11.8181818 C16.3650909,11.8181818 16.3643636,11.8181818 16.3636364,11.8181818 Z M14.7272727,2 C15.4298182,2 16,2.57018182 16,3.27272727 C16,3.97527273 15.4298182,4.54545455 14.7272727,4.54545455 C14.0247273,4.54545455 13.4545455,3.97527273 13.4545455,3.27272727 C13.4552727,2.57018182 14.0247273,2.00072727 14.7272727,2 Z M2.72727273,4.54545455 C2.02472727,4.54545455 1.45454545,3.97527273 1.45454545,3.27272727 C1.45454545,2.57018182 2.02472727,2 2.72727273,2 C3.42981818,2 4,2.57018182 4,3.27272727 C3.99927273,3.97527273 3.42981818,4.54472727 2.72727273,4.54545455 Z M9.45454545,3.63636364 C9.45454545,3.73672727 9.37309091,3.81818182 9.27272727,3.81818182 L8.18181818,3.81818182 C8.08145455,3.81818182 8,3.73672727 8,3.63636364 L8,2.54545455 C8,2.44509091 8.08145455,2.36363636 8.18181818,2.36363636 L9.27272727,2.36363636 C9.37309091,2.36363636 9.45454545,2.44509091 9.45454545,2.54545455 L9.45454545,3.63636364 Z" id="Shape"></path>
                    </g>
                </g>
            </g>
        </g>
    </g>
</svg>